<?xml version="1.0" encoding="UTF-8"?>
<svg version="1.1" xmlns="http://www.w3.org/2000/svg" width="1183" height="1182">
<path d="M0 0 C1.12112938 -0.00855011 1.12112938 -0.00855011 2.26490784 -0.01727295 C3.84057226 -0.0266588 5.41625575 -0.03323116 6.99194336 -0.03710938 C9.34200707 -0.04672404 11.69115966 -0.07777034 14.04101562 -0.109375 C28.24747854 -0.20963529 41.72269966 1.90402187 55.37890625 5.890625 C56.25522705 6.14553711 57.13154785 6.40044922 58.03442383 6.66308594 C83.38714924 14.32727778 105.79395607 28.06499778 124.94140625 46.203125 C125.88628906 47.08355469 126.83117187 47.96398437 127.8046875 48.87109375 C157.56033925 77.16351217 172.45964372 116.63987582 173.94140625 157.203125 C174.00328125 158.61851562 174.00328125 158.61851562 174.06640625 160.0625 C174.95444965 199.35842034 161.63358229 238.38519806 135.94140625 268.203125 C135.131875 269.14671875 134.32234375 270.0903125 133.48828125 271.0625 C120.0429301 286.39430347 104.04709469 297.46757628 86.62890625 307.828125 C85.89309326 308.26656738 85.15728027 308.70500977 84.39916992 309.15673828 C79.18688704 312.203125 79.18688704 312.203125 76.94140625 312.203125 C74.56005967 319.34716474 76.21477322 327.06778354 77.44140625 334.328125 C78.39543602 340.02651906 79.12952781 345.41838694 78.94140625 351.203125 C72.80125988 349.5519932 67.59628926 346.35022156 62.12890625 343.203125 C61.11876465 342.6265918 60.10862305 342.05005859 59.06787109 341.45605469 C33.65615051 326.91786926 33.65615051 326.91786926 31.94140625 325.203125 C30.92288136 313.34816313 32.66399685 303.29522948 40.328125 293.9765625 C48.11558587 285.41601229 58.00999092 280.63508534 69.6875 280.0703125 C71.01974609 280.07417969 71.01974609 280.07417969 72.37890625 280.078125 C73.70728516 280.07425781 73.70728516 280.07425781 75.0625 280.0703125 C77.94140625 280.203125 77.94140625 280.203125 81.15625 280.6953125 C85.81313988 281.32007585 90.37334146 281.4253964 95.06640625 281.453125 C95.94683594 281.47375 96.82726562 281.494375 97.734375 281.515625 C102.58120124 281.54486679 106.10291394 281.51886544 109.94140625 278.203125 C111.94061518 275.01231708 112.19133989 272.50419834 112.21484375 268.7734375 C112.23546875 267.73058594 112.25609375 266.68773437 112.27734375 265.61328125 C112.30329159 263.43106771 112.32157691 261.24874901 112.33203125 259.06640625 C112.46680595 252.9940572 112.62530585 248.8665828 116.94140625 244.203125 C119.43705933 242.27113188 122.01736605 240.6709659 124.69921875 239.01171875 C127.27046559 236.93769908 127.991547 235.32485344 128.94140625 232.203125 C128.17828125 231.275 127.41515625 230.346875 126.62890625 229.390625 C125.98501953 228.60751953 125.98501953 228.60751953 125.328125 227.80859375 C123.93360429 226.19409231 122.46724308 224.69316508 120.94140625 223.203125 C121.65167969 222.78160156 122.36195313 222.36007812 123.09375 221.92578125 C124.47240234 221.10400391 124.47240234 221.10400391 125.87890625 220.265625 C126.79542969 219.72035156 127.71195313 219.17507813 128.65625 218.61328125 C130.82553302 217.39580327 130.82553302 217.39580327 131.94140625 216.203125 C131.75488235 211.63328941 130.9528936 208.93233441 128.37890625 205.140625 C126.65553392 202.53798107 125.93123851 201.15126952 125.31640625 198.015625 C126.16336321 194.20431868 128.01536399 192.56200488 130.94140625 190.203125 C131.77414062 189.52507812 132.606875 188.84703125 133.46484375 188.1484375 C135.24611788 186.71423111 137.03491187 185.28930105 138.83203125 183.875 C141.56957563 181.94123284 141.56957563 181.94123284 142.24609375 178.87890625 C141.8465839 175.37039022 140.76243707 174.60622126 138.06640625 172.390625 C137.24398437 171.70355469 136.4215625 171.01648438 135.57421875 170.30859375 C134.70539063 169.61378906 133.8365625 168.91898438 132.94140625 168.203125 C132.11382813 167.53925781 131.28625 166.87539063 130.43359375 166.19140625 C128.76339188 164.85890978 127.09281498 163.52688327 125.421875 162.1953125 C107.42948683 147.74473302 107.42948683 147.74473302 106.00390625 138.078125 C105.97296875 136.655 105.97296875 136.655 105.94140625 135.203125 C109.20889918 132.21976189 112.6550228 131.22692335 116.8203125 130.046875 C119.13529041 129.12599981 120.32068653 128.06721158 121.94140625 126.203125 C121.26078125 126.533125 120.58015625 126.863125 119.87890625 127.203125 C116.38314726 128.39317061 113.61202766 128.48015303 109.94140625 128.203125 C107.94140625 126.203125 107.94140625 126.203125 107.77783203 124.07104492 C107.81376465 123.20068604 107.84969727 122.33032715 107.88671875 121.43359375 C107.91427246 120.46856934 107.94182617 119.50354492 107.97021484 118.50927734 C108.00195801 117.48012207 108.03370117 116.4509668 108.06640625 115.390625 C108.24112145 103.18122637 106.25244033 94.79869419 100.75390625 83.828125 C97.78478642 77.70477813 97.40442862 72.4598215 97.203125 65.7265625 C96.47959272 55.98587418 91.01802486 47.62804029 84.08984375 40.9921875 C63.84410987 24.13301274 31.99534603 19.76020123 6.69140625 19.828125 C5.95695282 19.82833649 5.22249939 19.82854797 4.46578979 19.82876587 C-9.63918307 19.86893687 -23.23560717 21.30765634 -37.05859375 24.203125 C-37.92468262 24.37972656 -38.79077148 24.55632812 -39.68310547 24.73828125 C-51.66241661 27.26862665 -62.44440587 31.657657 -73.45117188 36.953125 C-76.16981256 38.25644338 -78.90143602 39.52888828 -81.63671875 40.796875 C-93.85527287 46.46251393 -93.85527287 46.46251393 -105.4140625 53.33984375 C-105.95675781 53.62472656 -106.49945312 53.90960938 -107.05859375 54.203125 C-107.71859375 53.873125 -108.37859375 53.543125 -109.05859375 53.203125 C-95.94439451 38.43470306 -82.67266562 27.20744186 -65.05859375 18.203125 C-64.37394043 17.85121094 -63.68928711 17.49929688 -62.98388672 17.13671875 C-43.40381179 7.19768751 -22.13931755 0.1358033 0 0 Z " fill="#35C0C9" transform="translate(619.05859375,302.796875)"/>
<path d="M0 0 C1.1765918 0.00491455 2.35318359 0.0098291 3.56542969 0.01489258 C23.51699691 0.28173453 42.45333375 5.1244043 59.75 15.3125 C60.08 15.9725 60.41 16.6325 60.75 17.3125 C56.56292734 16.86388507 52.39064351 16.40543942 48.22265625 15.80078125 C11.30992186 10.6012852 -24.47884625 19.7349854 -54.4128418 42.05004883 C-70.71330828 54.52447715 -85.68174305 68.2159633 -89.25 89.3125 C-90.74595058 108.07319175 -83.90107633 123.36258662 -76.21801758 140.00097656 C-73.76968451 145.8473366 -72.99623204 152.50572266 -75.00390625 158.6015625 C-76.53489951 161.8076425 -77.96468145 164.04260407 -80.5625 166.5 C-82.50605157 168.19802236 -82.50605157 168.19802236 -82.375 170.75 C-81.08823962 173.6809542 -79.43974759 174.8245406 -76.94921875 176.7421875 C-73.47855957 179.94955529 -71.09196162 183.98818149 -69.25 188.3125 C-69.19140625 190.52734375 -69.19140625 190.52734375 -69.4375 192.5625 C-69.68739358 196.33669092 -69.68739358 196.33669092 -67.26953125 198.140625 C-64.9794503 199.66024461 -62.68377377 201.03766612 -60.25 202.3125 C-60.69472656 202.75980469 -61.13945312 203.20710937 -61.59765625 203.66796875 C-62.16355469 204.27253906 -62.72945313 204.87710938 -63.3125 205.5 C-64.16521484 206.38751953 -64.16521484 206.38751953 -65.03515625 207.29296875 C-66.46801 209.28010111 -66.46801 209.28010111 -66.2421875 211.8359375 C-64.92789523 215.11649378 -63.31843703 215.951613 -60.3125 217.75 C-55.90104108 220.60777679 -54.67409264 222.20950138 -53.25 227.3125 C-48.03774321 229.84698136 -43.18291206 229.38400652 -37.57421875 229 C-36.18732597 228.922052 -36.18732597 228.922052 -34.77241516 228.8425293 C-30.83746901 228.62122655 -26.90433192 228.37329002 -22.97094727 228.12597656 C-20.08920515 227.94875649 -17.20687732 227.78651364 -14.32421875 227.625 C-13.44892014 227.56465576 -12.57362152 227.50431152 -11.67179871 227.44213867 C-0.42550992 226.81822412 7.09031472 229.70795004 15.6484375 236.91015625 C18.86647183 240.10552837 20.18605693 242.69433723 20.5 247.25 C20.08938287 253.05105904 17.67388051 256.20033348 13.75 260.3125 C12.47962891 261.64667969 12.47962891 261.64667969 11.18359375 263.0078125 C6.46680777 267.86256966 1.57174876 272.49745868 -3.59375 276.875 C-5.22276716 278.28886395 -6.74371717 279.76947856 -8.25 281.3125 C-9.24 280.9825 -10.23 280.6525 -11.25 280.3125 C-11.22679687 279.18972656 -11.20359375 278.06695313 -11.1796875 276.91015625 C-10.24175311 263.99619894 -10.24175311 263.99619894 -14.78125 252.66796875 C-18.38313174 250.6903533 -21.95824941 250.47448384 -26 250 C-56.23229925 245.78375437 -83.30530057 226.56290422 -101.72851562 202.75170898 C-122.38354926 174.99379928 -130.21677431 140.8115785 -125.6015625 106.5625 C-119.95509946 73.13466578 -101.27759852 43.58722325 -74.25 23.3125 C-52.16575937 7.84246176 -26.94768946 -0.1346994 0 0 Z " fill="#68BE53" transform="translate(532.25,362.6875)"/>
<path d="M0 0 C14.23993112 0.72406429 28.52695794 7.37663261 38.30078125 17.8046875 C42.41134297 23.11534424 44.39425499 28.51733782 44 35.25 C43.32818362 39.73349035 41.84622582 42.51107803 39 46 C39.74443359 46.73089844 39.74443359 46.73089844 40.50390625 47.4765625 C48.66557168 55.99442965 56 67.89456326 56 80 C56.66 80 57.32 80 58 80 C58.39832031 78.69675781 58.39832031 78.69675781 58.8046875 77.3671875 C62.01985722 68.31007541 67.43458631 60.0029913 75 54 C75.99 53.67 76.98 53.34 78 53 C77.38406001 55.72290546 76.57387223 58.14605413 75.40625 60.6796875 C75.09816406 61.36160156 74.79007813 62.04351563 74.47265625 62.74609375 C73.82717032 64.15890433 73.17875705 65.57038133 72.52734375 66.98046875 C70.72043859 70.99497353 69.49931386 74.57552445 69 79 C69.50789062 78.65066406 70.01578125 78.30132813 70.5390625 77.94140625 C71.22742188 77.48636719 71.91578125 77.03132812 72.625 76.5625 C73.63433594 75.88380859 73.63433594 75.88380859 74.6640625 75.19140625 C77.42775436 73.78183097 79.93707835 73.38176817 83 73 C82.34644531 73.98226562 82.34644531 73.98226562 81.6796875 74.984375 C67.07386408 97.36732517 60.83015435 121.7522448 60.8125 148.375 C60.80025391 149.33921875 60.78800781 150.3034375 60.77539062 151.296875 C60.75631989 160.78138474 61.14489086 169.57990239 67.171875 177.24609375 C71.38600787 181.28914003 74.72217656 183.47639897 80.70825195 183.40087891 C81.38202881 183.37171387 82.05580566 183.34254883 82.75 183.3125 C83.45664795 183.30138184 84.1632959 183.29026367 84.89135742 183.27880859 C88.7782331 183.1908441 92.48985943 182.7938087 96.3125 182.125 C101.66404178 181.42345335 104.9518217 183.98338534 109.40234375 186.6875 C114.04052865 189.03100395 117.12536706 187.76027937 122.0234375 186.46484375 C122.69632813 186.29082031 123.36921875 186.11679687 124.0625 185.9375 C124.94615234 185.67259766 124.94615234 185.67259766 125.84765625 185.40234375 C132.33235896 184.1901398 137.08017304 185.44783791 142.9375 188 C143.62134766 188.28617188 144.30519531 188.57234375 145.00976562 188.8671875 C146.67785269 189.56708417 148.33962483 190.28199993 150 191 C150 191.99 150 192.98 150 194 C148.31234761 193.5422281 146.62488648 193.0837511 144.9375 192.625 C143.92429687 192.35945312 142.91109375 192.09390625 141.8671875 191.8203125 C139 191 139 191 135.5625 189.5 C129.77542919 188.68777954 125.13142694 191.48905546 120 194 C123.58181809 195.60816323 126.88885623 196.96985932 130.6875 198 C133.80652417 198.9415922 135.66678684 199.76011537 138 202 C138 202.66 138 203.32 138 204 C118.61909218 200.79637971 118.61909218 200.79637971 111.0078125 194.6171875 C106.97552649 191.36939293 103.21439195 190 98 190 C102.74112311 196.0067619 107.02970862 201.29053571 114.94140625 202.38769531 C118.29208782 202.67221713 121.64109766 202.83541379 125 203 C127.17316825 203.33527483 129.34160433 203.7050029 131.5 204.125 C132.81484375 204.37636719 132.81484375 204.37636719 134.15625 204.6328125 C134.7646875 204.75398437 135.373125 204.87515625 136 205 C136 205.66 136 206.32 136 207 C127.99305886 206.4017071 119.99394289 205.7529365 112 205 C112.76802497 207.50914778 112.76802497 207.50914778 114 210 C115.65554576 210.39733098 117.31302923 210.7887934 118.98046875 211.1328125 C123.32488614 212.99830701 126.1258743 217.37188288 129 221 C128.67 221.66 128.34 222.32 128 223 C124.68525684 222.41248535 122.9943076 221.35951919 120.5625 219.0625 C117.85243197 216.62694317 115.54032705 215.07282638 112 214 C111.34 217.3 110.68 220.6 110 224 C109.34 224 108.68 224 108 224 C108.02320313 223.11957031 108.04640625 222.23914063 108.0703125 221.33203125 C108.08835937 220.17058594 108.10640625 219.00914062 108.125 217.8125 C108.14820313 216.66394531 108.17140625 215.51539063 108.1953125 214.33203125 C107.79490591 207.50109475 104.33543243 203.09718726 99.46875 198.578125 C94.74377413 194.78922926 89.92221059 193.79836642 84 193 C84.74606262 195.54055632 84.74606262 195.54055632 87 198 C89.84539824 198.97398535 92.65455942 199.63097395 95.6015625 200.2265625 C96.39304687 200.48179687 97.18453125 200.73703125 98 201 C98.33 201.99 98.66 202.98 99 204 C96.36 204 93.72 204 91 204 C95.00390912 212.56120405 100.03031816 218.65015153 107 225 C105.3359375 225.73828125 105.3359375 225.73828125 103 226 C96.10880117 221.95063996 91.04647312 216.52265579 87.4140625 209.45703125 C83.52940718 202.70717435 79.79345186 199.91911869 72.6875 197.125 C71.57665039 196.66480469 71.57665039 196.66480469 70.44335938 196.1953125 C68.63499105 195.44863138 66.81828872 194.72218753 65 194 C67.65348968 198.48908019 69.73144089 200.82369518 74.4375 203.0625 C80.79277377 206.34563612 84.27501278 209.2893717 87.3125 215.8125 C89.8821983 221.30605374 93.50357741 225.00565934 98 229 C97.67 229.66 97.34 230.32 97 231 C93.7 229.02 90.4 227.04 87 225 C87.99 226.7015625 87.99 226.7015625 89 228.4375 C91.3303325 233.02431643 91.421044 236.94747199 91 242 C88.01926992 240.50963496 87.83587265 238.09395918 86.7890625 235.1015625 C85.99320856 232.82504149 85.99320856 232.82504149 84.4375 230.1875 C82.71234202 226.3621497 82.08852173 222.71232034 81.4296875 218.5859375 C81.05768233 216.34714273 80.58624386 214.19070072 80 212 C77.69 211.34 75.38 210.68 73 210 C73.76859066 214.55086575 74.38058061 218.14374378 77.125 221.9375 C79.77268376 226.26205015 79.35181188 230.05508863 79 235 C78.34 235 77.68 235 77 235 C76.95875 233.824375 76.9175 232.64875 76.875 231.4375 C76.45420161 227.89165471 75.63379845 226.26500835 73.125 223.75 C69.38744232 219.90565496 68.74196197 215.84540606 67.8359375 210.671875 C66.85427178 207.53421447 65.77708843 206.654918 63 205 C62.25815298 213.85270771 63.86119898 220.67649796 66.90625 228.84765625 C68 232 68 232 68 235 C64.27622402 233.5549526 63.02333774 231.9477905 61.3125 228.375 C58.82556202 222.70989053 58.42341858 217.49987066 58.5402832 211.39599609 C58.5797455 209.15935099 58.5797455 209.15935099 58 206 C55.60992732 203.96348915 55.60992732 203.96348915 53 203 C53.33 203.99 53.66 204.98 54 206 C55.29686211 211.05141395 55.1346219 216.10356773 55.01367188 221.27539062 C54.93786763 225.00423751 55.0921728 228.37572864 56 232 C53 231 53 231 51.83984375 229.3671875 C50.36586676 225.21262909 50.58772001 220.87834619 50.44140625 216.5078125 C49.96957856 212.75824379 48.86813716 210.25803121 47 207 C44.64800357 209.44999628 44.01961065 210.83004101 43.625 214.25 C43.93903172 217.39031719 44.3077604 218.97946226 45.5 221.75 C47.26263428 226.00009014 47.17870627 229.74966391 47.0390625 234.30078125 C46.98620484 237.95324562 47.4554943 241.39264974 48 245 C43.86862314 241.00189336 43.46359898 237.69201494 43.17578125 232.20703125 C43.13543471 229.95854511 43.13543471 229.95854511 42 228 C40.02 231.3 38.04 234.6 36 238 C34.96147494 233.84589976 35.00569328 233.37201595 36.4375 229.6875 C38.35225031 223.90890377 38.11526426 218.54567981 37.8125 212.515625 C38.020051 208.62404376 39.03904459 206.32953887 41 203 C37.535 203.99 37.535 203.99 34 205 C34.04640625 205.82242188 34.0928125 206.64484375 34.140625 207.4921875 C34.48117769 218.02499569 32.22548317 225.55112999 26 234 C25.01 233.67 24.02 233.34 23 233 C23.42152344 231.99839844 23.84304688 230.99679687 24.27734375 229.96484375 C24.83114936 228.62256912 25.38451117 227.28011133 25.9375 225.9375 C26.21529297 225.28072266 26.49308594 224.62394531 26.77929688 223.94726562 C29.56699108 217.12917015 30.34595778 211.32799235 29 204 C25.90863528 206.53404826 25.23258829 209.01868634 24.1875 212.8125 C22.95376356 216.78046314 22.01711567 219.49013684 18.875 222.25 C15.17960953 225.78472132 14.85290296 228.05316284 14 233 C13.34 233 12.68 233 12 233 C11.68434726 227.73912107 12.2340252 224.50751449 15 220 C15.5053125 219.54496094 16.010625 219.08992187 16.53125 218.62109375 C18.38201615 216.57835983 18.68088665 215.00144778 19.1875 212.3125 C19.34605469 211.50425781 19.50460937 210.69601562 19.66796875 209.86328125 C19.77753906 209.24839844 19.88710938 208.63351562 20 208 C17.19651523 208.79343909 15.33725492 209.34618346 13 211 C11.44498259 213.86420485 10.72759303 216.83655204 10 220 C8.71987126 225.12051497 7.33582602 227.95657452 4 232 C2.85927607 234.2958874 1.93751206 236.60934424 1 239 C0.67 239 0.34 239 0 239 C0.58852344 228.54863541 0.58852344 228.54863541 4 224 C4.33 223.34 4.66 222.68 5 222 C4.38511719 222.37253906 3.77023437 222.74507812 3.13671875 223.12890625 C2.32847656 223.60199219 1.52023437 224.07507813 0.6875 224.5625 C-0.11300781 225.03816406 -0.91351562 225.51382813 -1.73828125 226.00390625 C-4 227 -4 227 -7 226 C-5.54712339 224.66072279 -4.08752741 223.32873153 -2.625 222 C-1.81289063 221.2575 -1.00078125 220.515 -0.1640625 219.75 C2 218 2 218 4 218 C4.226875 217.154375 4.45375 216.30875 4.6875 215.4375 C7.61845818 207.76118095 10.78621407 204.75851423 18.125 201.3125 C18.74729492 201.03929932 19.36958984 200.76609863 20.01074219 200.48461914 C23.66541358 198.85106189 25.92797947 197.47101249 28 194 C16.03194988 197.00266026 10.45825188 200.05047401 3 210 C-0.56462088 214.72857871 -4.66110156 219.27217316 -10 222 C-12.24609375 221.66015625 -12.24609375 221.66015625 -14 221 C-6 213 -6 213 -3.90625 211 C-2.01977348 209.02074594 -0.65362462 207.08937436 0.75 204.75 C1.17796875 204.04359375 1.6059375 203.3371875 2.046875 202.609375 C2.51867187 201.81273437 2.51867187 201.81273437 3 201 C0.36 200.67 -2.28 200.34 -5 200 C-5 199.34 -5 198.68 -5 198 C-4.25234375 197.91363281 -3.5046875 197.82726562 -2.734375 197.73828125 C3.60519711 196.95456657 3.60519711 196.95456657 8.6875 193.375 C9.120625 192.59125 9.55375 191.8075 10 191 C3.53884903 191.25538146 -0.83628239 191.77514014 -6 196 C-7.051875 196.78375 -8.10375 197.5675 -9.1875 198.375 C-15.80258021 204.54907486 -15.62991366 211.39868301 -16 220 C-16.66 220 -17.32 220 -18 220 C-18.66 216.7 -19.32 213.4 -20 210 C-25.31522416 212.06100529 -29.44815281 214.5628909 -34 218 C-34.66 217.67 -35.32 217.34 -36 217 C-34.1957311 212.30890086 -30.56912568 208.34064562 -26.12109375 206.01953125 C-24.42404177 205.32157877 -22.71266327 204.65871664 -21 204 C-20.34 203.34 -19.68 202.68 -19 202 C-21.94131891 201.01956036 -23.82501665 200.88378798 -26.88671875 200.90234375 C-28.2934082 200.90717773 -28.2934082 200.90717773 -29.72851562 200.91210938 C-30.70498047 200.92048828 -31.68144531 200.92886719 -32.6875 200.9375 C-34.16959961 200.94426758 -34.16959961 200.94426758 -35.68164062 200.95117188 C-38.12115474 200.96295697 -40.56054689 200.97940989 -43 201 C-42.505 200.01 -42.505 200.01 -42 199 C-39.49816244 198.51227715 -37.08905917 198.15459109 -34.5625 197.875 C-33.83329346 197.78355713 -33.10408691 197.69211426 -32.3527832 197.59790039 C-28.34986245 197.12928955 -24.71055806 197.02738243 -20.6875 197.4375 C-14.87600809 197.63483419 -11.40624096 193.92794835 -7.25 190.26171875 C-4.8711281 188.01639137 -4.8711281 188.01639137 -3 185 C-9.06825291 186.77251374 -14.57406003 188.52081196 -19.8125 192.125 C-25.15485966 195.57364518 -30.49900546 196.08563399 -36.6796875 196.67578125 C-39.25617563 196.92736774 -41.52929979 197.27368863 -44 198 C-43 195 -43 195 -40 193.4375 C-35.7881246 191.77376544 -31.43618085 190.85504619 -27 190 C-27 189.34 -27 188.68 -27 188 C-33.47662386 184.43249797 -37.79614432 183.52198761 -45 185 C-45.99386719 185.17402344 -46.98773438 185.34804688 -48.01171875 185.52734375 C-50.67944085 185.99530524 -53.34044572 186.48797366 -56 187 C-56 186.01 -56 185.02 -56 184 C-53.50563281 183.1251552 -51.00680288 182.2753233 -48.5 181.4375 C-47.45585937 181.0672168 -47.45585937 181.0672168 -46.390625 180.68945312 C-37.77275334 177.85672679 -31.19845128 180.07647622 -22.9296875 183.35546875 C-18.26418954 184.3818783 -15.15780344 182.65441064 -11.125 180.375 C-5.64199652 177.96247847 -0.78704475 178.76641972 4.875 180 C13.86608722 181.90010725 20.94985872 181.73447006 29 177 C35.0930029 173.02225356 37.65873843 168.1543307 39.1328125 161.13671875 C39.47282021 159.32202643 39.80333796 157.50553382 40.125 155.6875 C40.29386719 154.78837891 40.46273437 153.88925781 40.63671875 152.96289062 C45.29580734 127.59470352 43.15645735 106.31526001 29.2421875 84.20703125 C25.73903674 79.3433545 21.85098712 76.17588541 16.72265625 73.09375 C16.15417969 72.7328125 15.58570313 72.371875 15 72 C15 71.67 15 71.34 15 71 C24.66793424 70.32679762 33.30188173 71.76648892 41 78 C43.0393459 67.33643229 40.82893891 56.65787783 36 47 C35.01 47.66 34.02 48.32 33 49 C27.57850996 49.67279674 22.61732575 49.74876192 17.625 47.4375 C5.54448587 36.21987974 3.61080274 24.03675077 1.46484375 8.19921875 C1.06383207 5.43931486 0.57822483 2.72737906 0 0 Z M22 22 C23.31613712 25.52850096 24.88386941 28.61946934 26.875 31.8125 C29.5048861 36.11184811 31.81422184 40.4603069 34 45 C35.32 45 36.64 45 38 45 C34.80876096 36.33359595 29.26633328 28.71392852 23 22 C22.67 22 22.34 22 22 22 Z " fill="#68BE53" transform="translate(543,466)"/>
<path d="M0 0 C5 0 10 0 15 0 C16.423125 -0.061875 16.423125 -0.061875 17.875 -0.125 C21 0 21 0 23.6875 1.125 C24.450625 1.41375 25.21375 1.7025 26 2 C26.99 1.34 27.98 0.68 29 0 C33.13387309 -0.45931923 35.28872692 -0.43294883 38.875 1.75 C42.02313367 5.083318 42.12634515 8.03188761 42.11352539 12.49316406 C42.11344986 13.37377502 42.11337433 14.25438599 42.11329651 15.16168213 C42.10813522 16.10348328 42.10297394 17.04528442 42.09765625 18.015625 C42.0962413 18.98659119 42.09482635 19.95755737 42.09336853 20.95794678 C42.08777663 24.05532935 42.07522559 27.15263932 42.0625 30.25 C42.05748395 32.35156146 42.05292123 34.45312404 42.04882812 36.5546875 C42.03780985 41.70315292 42.02055074 46.85156416 42 52 C38.04 52 34.08 52 30 52 C29.67 38.47 29.34 24.94 29 11 C28.34 11 27.68 11 27 11 C27 24.53 27 38.06 27 52 C23.04 52 19.08 52 15 52 C14.67 38.8 14.34 25.6 14 12 C13.34 11.67 12.68 11.34 12 11 C12 24.53 12 38.06 12 52 C8.04 52 4.08 52 0 52 C0 34.84 0 17.68 0 0 Z " fill="#35C0C9" transform="translate(579,816)"/>
<path d="M0 0 C25 0 25 0 30 3 C31.25147578 5.50295156 31.14045813 7.2278776 31.16113281 10.02880859 C31.17074036 11.07684662 31.1803479 12.12488464 31.19024658 13.2046814 C31.19449646 14.34112091 31.19874634 15.47756042 31.203125 16.6484375 C31.20882507 17.81251129 31.21452515 18.97658508 31.22039795 20.17593384 C31.22985722 22.64234505 31.2363856 25.10876896 31.24023438 27.57519531 C31.24994201 31.35243729 31.28095834 35.12913578 31.3125 38.90625 C31.31902962 41.29947593 31.32428025 43.69270575 31.328125 46.0859375 C31.3404718 47.21832855 31.3528186 48.3507196 31.36553955 49.51742554 C31.36253845 50.57176788 31.35953735 51.62611023 31.35644531 52.71240234 C31.36009094 53.63902679 31.36373657 54.56565125 31.36749268 55.52035522 C30.92254861 58.52260073 30.13565394 59.8590271 28 62 C18.93956385 64.26510904 9.33928382 63 0 63 C0 42.21 0 21.42 0 0 Z M14 11 C14 24.53 14 38.06 14 52 C14.99 52 15.98 52 17 52 C17 38.47 17 24.94 17 11 C16.01 11 15.02 11 14 11 Z " fill="#35C0C9" transform="translate(357,805)"/>
<path d="M0 0 C21 0 21 0 29 2 C31.29032238 4.79406651 31.25620345 7.52338936 31.2746582 11.05639648 C31.28895622 12.56332314 31.28895622 12.56332314 31.30354309 14.10069275 C31.30263168 15.17992508 31.30172028 16.25915741 31.30078125 17.37109375 C31.30506638 18.48557388 31.3093515 19.60005402 31.31376648 20.74830627 C31.31950753 23.10441407 31.32001171 25.46053959 31.31567383 27.81665039 C31.312515 31.42039241 31.33597291 35.02331267 31.36132812 38.62695312 C31.36360124 40.91666563 31.36430456 43.20638034 31.36328125 45.49609375 C31.372491 46.57330185 31.38170074 47.65050995 31.39118958 48.76036072 C31.33133395 58.44453673 31.33133395 58.44453673 28 62 C18.93956385 64.26510904 9.33928382 63 0 63 C0 42.21 0 21.42 0 0 Z M14 11 C14 24.53 14 38.06 14 52 C14.99 52 15.98 52 17 52 C17 38.8 17 25.6 17 12 C16.01 11.67 15.02 11.34 14 11 Z " fill="#68BE53" transform="translate(498,720)"/>
<path d="M0 0 C4.62 0 9.24 0 14 0 C14 17.16 14 34.32 14 52 C14.99 51.505 14.99 51.505 16 51 C16.33 34.17 16.66 17.34 17 0 C21.62 0 26.24 0 31 0 C31.04948183 7.72297229 31.08575875 15.44585204 31.10986328 23.16894531 C31.11991339 25.79558927 31.1335556 28.42222207 31.15087891 31.04882812 C31.17517028 34.82685098 31.18649319 38.60472573 31.1953125 42.3828125 C31.20563507 43.55490265 31.21595764 44.7269928 31.22659302 45.93460083 C31.22805276 56.5707385 31.22805276 56.5707385 29 61 C22.27536087 65.48309275 12.68279632 64.3264478 5.0234375 62.86328125 C2.3340403 61.71587433 1.50950468 60.49688928 0 58 C-0.36076355 55.31707764 -0.36076355 55.31707764 -0.34057617 52.22167969 C-0.34034958 51.0607782 -0.34012299 49.89987671 -0.33988953 48.70379639 C-0.32440567 47.45576233 -0.30892181 46.20772827 -0.29296875 44.921875 C-0.28872391 43.64016418 -0.28447906 42.35845337 -0.28010559 41.03790283 C-0.26867648 37.63800365 -0.23922666 34.23849177 -0.20599365 30.83874512 C-0.17525063 27.36650837 -0.16159126 23.89420876 -0.14648438 20.421875 C-0.1143545 13.61440864 -0.06160276 6.80726281 0 0 Z " fill="#68BE53" transform="translate(448,720)"/>
<path d="M0 0 C4.62 0 9.24 0 14 0 C14 17.16 14 34.32 14 52 C14.99 51.505 14.99 51.505 16 51 C16.33 34.17 16.66 17.34 17 0 C21.62 0 26.24 0 31 0 C31.04943711 7.88369837 31.08573752 15.7673065 31.10986328 23.65112305 C31.11879115 26.33313646 31.13270718 29.01505515 31.15087891 31.69702148 C31.17513719 35.5519481 31.18648559 39.40672973 31.1953125 43.26171875 C31.20563507 44.46084396 31.21595764 45.65996918 31.22659302 46.89543152 C31.22674408 48.01621597 31.22689514 49.13700043 31.22705078 50.29174805 C31.231492 51.27547897 31.23593323 52.2592099 31.24050903 53.27275085 C30.97808972 56.24845133 30.37112073 58.34935798 29 61 C22.2895487 65.4736342 12.69041138 64.31093622 5.0234375 62.9609375 C2.1210737 61.58259485 1.41812379 59.84926359 0 57 C-0.36076355 54.23478699 -0.36076355 54.23478699 -0.34057617 51.19995117 C-0.34034958 50.05914597 -0.34012299 48.91834076 -0.33988953 47.7429657 C-0.32440567 46.52196671 -0.30892181 45.30096771 -0.29296875 44.04296875 C-0.28872391 42.78486893 -0.28447906 41.5267691 -0.28010559 40.23054504 C-0.26617619 36.89797865 -0.23925765 33.56603592 -0.20599365 30.23364258 C-0.17521552 26.82834237 -0.1615838 23.42297756 -0.14648438 20.01757812 C-0.11342402 13.34485829 -0.06164497 6.67251452 0 0 Z " fill="#68BE53" transform="translate(357,720)"/>
<path d="M0 0 C0.74636719 -0.00322266 1.49273438 -0.00644531 2.26171875 -0.00976562 C6.39466274 0.03046657 9.80748098 0.25268062 13.5 2.3125 C15.53120707 5.35931061 15.74659875 5.91368324 15.6953125 9.32421875 C15.68886719 10.08154297 15.68242188 10.83886719 15.67578125 11.61914062 C15.65902344 12.40482422 15.64226563 13.19050781 15.625 14 C15.61597656 14.79728516 15.60695313 15.59457031 15.59765625 16.41601562 C15.57411585 18.381639 15.53824547 20.34710775 15.5 22.3125 C10.88 22.3125 6.26 22.3125 1.5 22.3125 C1.005 17.3625 1.005 17.3625 0.5 12.3125 C-0.92825986 13.5124099 -0.92825986 13.5124099 -0.61352539 17.00610352 C-0.61336624 18.65121292 -0.60766988 20.29632731 -0.59765625 21.94140625 C-0.59553383 23.23775246 -0.59553383 23.23775246 -0.59336853 24.56028748 C-0.58775239 27.33189292 -0.57519719 30.1034188 -0.5625 32.875 C-0.55748708 34.7493478 -0.55292381 36.62369685 -0.54882812 38.49804688 C-0.53777772 43.10289544 -0.5205023 47.70768421 -0.5 52.3125 C0.16 52.3125 0.82 52.3125 1.5 52.3125 C1.5 48.6825 1.5 45.0525 1.5 41.3125 C0.84 41.3125 0.18 41.3125 -0.5 41.3125 C-0.5 37.6825 -0.5 34.0525 -0.5 30.3125 C4.78 30.3125 10.06 30.3125 15.5 30.3125 C15.5 41.2025 15.5 52.0925 15.5 63.3125 C13.19 63.3125 10.88 63.3125 8.5 63.3125 C7.84 62.6525 7.18 61.9925 6.5 61.3125 C5.51 61.9725 4.52 62.6325 3.5 63.3125 C-2.21839423 64.68668776 -7.06708971 64.5300144 -12.5 62.3125 C-16.19542971 56.76935543 -15.66011692 50.89908989 -15.66796875 44.4453125 C-15.67129715 43.49236298 -15.67462555 42.53941345 -15.67805481 41.55758667 C-15.68310798 39.54539471 -15.68546363 37.5331944 -15.68530273 35.52099609 C-15.68748734 32.45526205 -15.70565509 29.38988911 -15.72460938 26.32421875 C-15.72754407 24.36458456 -15.72952836 22.40494866 -15.73046875 20.4453125 C-15.73765427 19.53468048 -15.74483978 18.62404846 -15.75224304 17.68582153 C-15.73382229 12.51130997 -15.31909139 8.17865897 -13.5 3.3125 C-9.47558334 -0.37404586 -5.16711625 -0.1115526 0 0 Z " fill="#68BE53" transform="translate(612.5,719.6875)"/>
<path d="M0 0 C0.10957031 0.81339844 0.21914063 1.62679688 0.33203125 2.46484375 C1.41784086 10.37186156 1.41784086 10.37186156 2.8359375 18.22265625 C5.5058037 31.46137417 6.5745852 43.98368563 -1.1640625 55.7734375 C-3.93028559 59.43199061 -6.68918433 61.50779458 -11 63 C-14.01965152 63.22276118 -16.97928674 63.1812428 -20 63 C-19.50940538 53.12043934 -17.97298648 43.66639286 -16 34 C-16.96416024 36.81061806 -17.92140841 39.62329598 -18.875 42.4375 C-19.14441406 43.22060547 -19.41382813 44.00371094 -19.69140625 44.81054688 C-21.49652868 50.15987311 -22.85966359 55.46992196 -24 61 C-28.297179 60.14970713 -30.1571034 58.36658808 -33 55 C-36.10718012 48.78563976 -36.00488113 41.51708396 -34.125 34.9375 C-31.45276504 28.04594668 -27.91278482 22.49075951 -23 17 C-22.42765625 16.33484375 -21.8553125 15.6696875 -21.265625 14.984375 C-17.22682253 10.60037573 -6.43520675 0 0 0 Z M-15 29 C-14 32 -14 32 -14 32 Z " fill="#8BC373" transform="translate(629,453)"/>
<path d="M0 0 C1.12535156 0.00580078 1.12535156 0.00580078 2.2734375 0.01171875 C3.02367187 0.00785156 3.77390625 0.00398437 4.546875 0 C10.14682697 0.01010822 10.14682697 0.01010822 11.2734375 1.13671875 C11.57253657 2.77669727 11.81315524 4.42739547 12.02954102 6.08032227 C12.16961075 7.13554581 12.30968048 8.19076935 12.45399475 9.27796936 C12.60194992 10.42889572 12.74990509 11.57982208 12.90234375 12.765625 C13.05630112 13.94382309 13.21025848 15.12202118 13.36888123 16.33592224 C13.69459429 18.83833523 14.01809969 21.34103638 14.33959961 23.84399414 C14.83079862 27.65930331 15.33190322 31.47321893 15.83398438 35.28710938 C16.14904205 37.71736962 16.46351373 40.14770592 16.77734375 42.578125 C17.00231285 44.28326012 17.00231285 44.28326012 17.23182678 46.02284241 C17.96369458 51.7812916 18.4422569 57.33206417 18.2734375 63.13671875 C13.9834375 63.13671875 9.6934375 63.13671875 5.2734375 63.13671875 C4.9434375 59.17671875 4.6134375 55.21671875 4.2734375 51.13671875 C2.9534375 51.13671875 1.6334375 51.13671875 0.2734375 51.13671875 C-0.0565625 55.09671875 -0.3865625 59.05671875 -0.7265625 63.13671875 C-5.0165625 63.13671875 -9.3065625 63.13671875 -13.7265625 63.13671875 C-13.09202196 51.00113093 -11.70373455 39.02851229 -10.14257812 26.97949219 C-9.72119688 23.72021703 -9.30942124 20.45981963 -8.8984375 17.19921875 C-8.63337708 15.12883389 -8.36777287 13.05851856 -8.1015625 10.98828125 C-7.97861816 10.01243073 -7.85567383 9.0365802 -7.72900391 8.03115845 C-7.61218262 7.13867401 -7.49536133 6.24618958 -7.375 5.32666016 C-7.27364746 4.53917389 -7.17229492 3.75168762 -7.06787109 2.94033813 C-6.31541292 -1.03597005 -3.48822644 0.00629644 0 0 Z M1.2734375 29.13671875 C1.2734375 32.76671875 1.2734375 36.39671875 1.2734375 40.13671875 C1.9334375 40.13671875 2.5934375 40.13671875 3.2734375 40.13671875 C3.2734375 36.50671875 3.2734375 32.87671875 3.2734375 29.13671875 C2.6134375 29.13671875 1.9534375 29.13671875 1.2734375 29.13671875 Z " fill="#68BE53" transform="translate(692.7265625,719.86328125)"/>
<path d="M0 0 C5.61 0 11.22 0 17 0 C18.04443676 7.91869177 19.08778699 15.83752436 20.12921143 23.75661278 C20.61280109 27.43353545 21.0968715 31.11039351 21.58203125 34.78710938 C22.04999459 38.3336398 22.51670732 41.88033273 22.98254395 45.4271431 C23.16071808 46.78201823 23.33934699 48.13683364 23.51843262 49.49158859 C23.76869139 51.38534819 24.01720068 53.27933873 24.265625 55.17333984 C24.47880371 56.79216568 24.47880371 56.79216568 24.69628906 58.44369507 C25 61 25 61 25 63 C20.38 63 15.76 63 11 63 C10.67 59.04 10.34 55.08 10 51 C8.68 51 7.36 51 6 51 C6.020625 52.051875 6.04125 53.10375 6.0625 54.1875 C6 58 6 58 5 63 C0.71 63 -3.58 63 -8 63 C-7.2886216 51.63573001 -5.87290113 40.3926521 -4.41601562 29.10351562 C-3.99655238 25.84824454 -3.58390634 22.59215673 -3.171875 19.3359375 C-2.9066528 17.26296926 -2.64104212 15.19005067 -2.375 13.1171875 C-2.1905835 11.65948441 -2.1905835 11.65948441 -2.00244141 10.17233276 C-1.88562012 9.27354401 -1.76879883 8.37475525 -1.6484375 7.44873047 C-1.54708496 6.65965302 -1.44573242 5.87057556 -1.34130859 5.05758667 C-1 3 -1 3 0 0 Z M8 26 C7.04738513 30.76307437 6.91666643 35.1666528 7 40 C7.99 40 8.98 40 10 40 C9.67 35.38 9.34 30.76 9 26 C8.67 26 8.34 26 8 26 Z " fill="#68BE53" transform="translate(555,720)"/>
<path d="M0 0 C-15.20877552 33.0449462 -15.20877552 33.0449462 -27.4375 39.9375 C-33.18507452 41.65168889 -37.83247413 41.77411638 -43.5 39.75 C-46 38 -46 38 -46.85522461 36.12011719 C-47 34 -47 34 -45.73657227 32.16894531 C-44.78609009 31.25773926 -44.78609009 31.25773926 -43.81640625 30.328125 C-43.13642578 29.66425781 -42.45644531 29.00039063 -41.75585938 28.31640625 C-41.03205078 27.63449219 -40.30824219 26.95257812 -39.5625 26.25 C-38.48258789 25.20392578 -38.48258789 25.20392578 -37.38085938 24.13671875 C-35.59788539 22.41278364 -33.80432174 20.70153391 -32 19 C-37.52945729 22.53244467 -42.5668533 26.19572975 -47.37109375 30.6796875 C-49 32 -49 32 -51 32 C-53.0135889 27.9728222 -52.5893574 23.36817835 -52 19 C-49.1223048 11.92658127 -43.79225119 7.22926393 -37 4 C-24.89071754 -0.83467621 -12.8187023 -0.45674422 0 0 Z M-30 16 C-30.33 16.66 -30.66 17.32 -31 18 C-30.01 17.67 -29.02 17.34 -28 17 C-28.66 16.67 -29.32 16.34 -30 16 Z " fill="#119466" transform="translate(674,505)"/>
<path d="M0 0 C14.23993112 0.72406429 28.52695794 7.37663261 38.30078125 17.8046875 C43.06911289 23.96515275 44.54590803 29.99501171 43.84765625 37.67578125 C42.65977751 40.93286812 40.53441813 42.70153091 38 45 C37.50371094 44.16597656 37.00742187 43.33195312 36.49609375 42.47265625 C32.36718505 35.63292705 28.10320555 29.17168922 23 23 C23.53109375 23.9178125 24.0621875 24.835625 24.609375 25.78125 C35 43.80034189 35 43.80034189 35 48 C30.8118613 50.09406935 25.56095004 49.41898491 21 49 C13.60658957 45.5771248 8.81796285 38.76340881 5.8046875 31.3671875 C3.2692291 23.90850892 2.51805998 15.97212858 1.46484375 8.19921875 C1.06383207 5.43931486 0.57822483 2.72737906 0 0 Z " fill="#CFDF6E" transform="translate(543,466)"/>
<path d="M0 0 C1.794375 -0.00773438 1.794375 -0.00773438 3.625 -0.015625 C6.90541208 0.24255558 9.12197033 0.67730619 12 2.25 C14.4515775 7.85360571 14.16580108 13.19826065 14 19.25 C10.04 19.58 6.08 19.91 2 20.25 C4.1346875 21.3328125 4.1346875 21.3328125 6.3125 22.4375 C10.24634899 24.43293065 12.17225553 26.19287294 14 30.25 C14.77204766 36.80825429 14.88803383 44.2113838 12 50.25 C8.875 52.1875 8.875 52.1875 6 53.25 C6.103125 54.508125 6.20625 55.76625 6.3125 57.0625 C6.3046875 59.26953125 6.3046875 59.26953125 6 61.25 C3.07175551 64.08950981 1.25938651 64.23724329 -2.8125 64.4375 C-3.864375 64.375625 -4.91625 64.31375 -6 64.25 C-6 61.94 -6 59.63 -6 57.25 C-4.02 56.755 -4.02 56.755 -2 56.25 C-1.67 54.93 -1.34 53.61 -1 52.25 C-2.0725 52.29125 -3.145 52.3325 -4.25 52.375 C-9.81818182 52.18939394 -9.81818182 52.18939394 -12 50.25 C-14.02929354 44.46651341 -14.19043508 39.34392255 -14 33.25 C-9.71 33.25 -5.42 33.25 -1 33.25 C-1 36.22 -1 39.19 -1 42.25 C-0.34 42.25 0.32 42.25 1 42.25 C1.31260069 38.97859742 1.21622214 36.32573532 0 33.25 C-2.69286132 31.23680655 -5.36649868 29.906659 -8.43359375 28.5390625 C-11 27.25 -11 27.25 -13 24.25 C-15.09147488 17.34813288 -14.88856496 8.8524342 -12 2.25 C-8.03342984 0.08247532 -4.46283334 -0.01923635 0 0 Z M-1 10.25 C-1 12.89 -1 15.53 -1 18.25 C-0.01 18.745 -0.01 18.745 1 19.25 C1 16.28 1 13.31 1 10.25 C0.34 10.25 -0.32 10.25 -1 10.25 Z " fill="#35C0C9" transform="translate(546,815.75)"/>
<path d="M0 0 C3.63 0 7.26 0 11 0 C11.33 6.93 11.66 13.86 12 21 C12.99 17.7 13.98 14.4 15 11 C18.96 11 22.92 11 27 11 C26.72285156 12.21816406 26.44570313 13.43632813 26.16015625 14.69140625 C25.79412758 16.31507188 25.4282502 17.93877162 25.0625 19.5625 C24.88009766 20.36236328 24.69769531 21.16222656 24.50976562 21.98632812 C24.15126162 23.58330052 23.80434807 25.18291845 23.46899414 26.78491211 C23.07879537 28.62784465 22.63927324 30.46024967 22.1875 32.2890625 C21.89647477 38.04893688 23.48541858 43.26790026 24.9375 48.8125 C25.51073959 51.06859815 26.08243585 53.32508919 26.65234375 55.58203125 C26.91007568 56.57436768 27.16780762 57.5667041 27.43334961 58.58911133 C28 61 28 61 28 63 C23.71 63 19.42 63 15 63 C14.01 58.71 13.02 54.42 12 50 C11.67 54.29 11.34 58.58 11 63 C7.37 63 3.74 63 0 63 C0 42.21 0 21.42 0 0 Z " fill="#35C0C9" transform="translate(798,805)"/>
<path d="M0 0 C7.26 0 14.52 0 22 0 C27 5 27 5 27.60127258 7.38557434 C27.59016953 8.20942123 27.57906647 9.03326813 27.56762695 9.88208008 C27.5672493 10.82267776 27.56687164 11.76327545 27.56648254 12.7323761 C27.54067612 13.7346373 27.51486969 14.7368985 27.48828125 15.76953125 C27.48120651 16.80567062 27.47413177 17.84181 27.46684265 18.90934753 C27.43890607 22.21113997 27.3761663 25.51122216 27.3125 28.8125 C27.2874163 31.05401193 27.26460326 33.2955505 27.24414062 35.53710938 C27.18908131 41.02539621 27.10281128 46.51240838 27 52 C23.04 52 19.08 52 15 52 C15 38.47 15 24.94 15 11 C14.34 11 13.68 11 13 11 C13 24.53 13 38.06 13 52 C8.71 52 4.42 52 0 52 C0 34.84 0 17.68 0 0 Z " fill="#35C0C9" transform="translate(454,816)"/>
<path d="M0 0 C1.19625 -0.01675781 2.3925 -0.03351562 3.625 -0.05078125 C7.53115019 0.36967242 10.20179631 1.51429631 13 4.3125 C14.04746984 9.883532 14.13157158 15.30912398 14.09765625 20.96484375 C14.0962413 21.86497696 14.09482635 22.76511017 14.09336853 23.69252014 C14.0878066 26.54504837 14.07526127 29.39749581 14.0625 32.25 C14.05748008 34.19335824 14.05291803 36.13671771 14.04882812 38.08007812 C14.03784966 42.8242495 14.02061153 47.56836109 14 52.3125 C10.06263877 52.39946177 6.12552372 52.45287835 2.1875 52.5 C1.06794922 52.52513672 -0.05160156 52.55027344 -1.20507812 52.57617188 C-2.27822266 52.58583984 -3.35136719 52.59550781 -4.45703125 52.60546875 C-5.44678955 52.6211792 -6.43654785 52.63688965 -7.45629883 52.65307617 C-10 52.3125 -10 52.3125 -11.8034668 50.9465332 C-15.38292337 46.05828533 -14.65483896 37.1047065 -14 31.3125 C-12.1744614 27.35426869 -10.10185605 25.35649555 -6.4375 23.0625 C-5.65246094 22.56234375 -4.86742187 22.0621875 -4.05859375 21.546875 C-2 20.3125 -2 20.3125 0 19.3125 C0.46651207 17.18673218 0.46651207 17.18673218 0.625 14.75 C0.69976562 13.92371094 0.77453125 13.09742188 0.8515625 12.24609375 C0.90054687 11.60800781 0.94953125 10.96992187 1 10.3125 C0.34 10.3125 -0.32 10.3125 -1 10.3125 C-1 13.2825 -1 16.2525 -1 19.3125 C-5.29 19.3125 -9.58 19.3125 -14 19.3125 C-14.32044199 7.6163674 -14.32044199 7.6163674 -12 2.3125 C-8.04529074 0.15866017 -4.44906547 0.01438275 0 0 Z M0 31.3125 C-1.25949049 32.34656673 -1.25949049 32.34656673 -1.09765625 34.59765625 C-1.08605469 35.51417969 -1.07445312 36.43070313 -1.0625 37.375 C-1.05347656 38.29410156 -1.04445313 39.21320312 -1.03515625 40.16015625 C-1.02355469 40.87042969 -1.01195312 41.58070313 -1 42.3125 C-0.34 42.3125 0.32 42.3125 1 42.3125 C1 38.6825 1 35.0525 1 31.3125 C0.67 31.3125 0.34 31.3125 0 31.3125 Z " fill="#35C0C9" transform="translate(421,815.6875)"/>
<path d="M0 0 C5 0 10 0 15 0 C16.7015625 -0.12375 16.7015625 -0.12375 18.4375 -0.25 C22 0 22 0 24.375 1.8125 C26.76646082 5.03177418 27.12442833 7.57908504 27.11352539 11.47143555 C27.11344986 12.37214279 27.11337433 13.27285004 27.11329651 14.20085144 C27.10813522 15.16968765 27.10297394 16.13852386 27.09765625 17.13671875 C27.0962413 18.13129593 27.09482635 19.12587311 27.09336853 20.15058899 C27.08776761 23.32958982 27.07521496 26.50852043 27.0625 29.6875 C27.05748512 31.84179586 27.05292219 33.99609282 27.04882812 36.15039062 C27.03779787 41.43362084 27.02053262 46.71679851 27 52 C23.04 52 19.08 52 15 52 C14.67 38.47 14.34 24.94 14 11 C13.34 11 12.68 11 12 11 C12 24.53 12 38.06 12 52 C8.04 52 4.08 52 0 52 C0 34.84 0 17.68 0 0 Z " fill="#35C0C9" transform="translate(687,816)"/>
<path d="M0 0 C1.66869141 -0.02126953 1.66869141 -0.02126953 3.37109375 -0.04296875 C6.60949894 0.19089405 8.73364499 0.60593556 11.5625 2.1875 C13.42422319 5.14359642 13.8085664 7.40341436 13.78955078 10.86425781 C13.78939972 11.78491028 13.78924866 12.70556274 13.78909302 13.65411377 C13.77877045 14.63966248 13.76844788 15.62521118 13.7578125 16.640625 C13.7549826 17.65598328 13.75215271 18.67134155 13.74923706 19.71746826 C13.73805001 22.95759916 13.71294791 26.19745276 13.6875 29.4375 C13.6774683 31.63541267 13.66834278 33.83332968 13.66015625 36.03125 C13.63811551 41.41676114 13.60465251 46.80211076 13.5625 52.1875 C9.79181168 52.274485 6.02138068 52.32788579 2.25 52.375 C1.17814453 52.40013672 0.10628906 52.42527344 -0.99804688 52.45117188 C-2.02607422 52.46083984 -3.05410156 52.47050781 -4.11328125 52.48046875 C-5.06114502 52.4961792 -6.00900879 52.51188965 -6.9855957 52.52807617 C-9.87379723 52.12689713 -10.69160181 51.46857127 -12.4375 49.1875 C-14.12210589 45.81828823 -13.74842974 42.0765138 -13.8125 38.375 C-13.86857422 37.16360352 -13.86857422 37.16360352 -13.92578125 35.92773438 C-13.98924356 31.62287464 -13.90255493 29.78347712 -11.17578125 26.2890625 C-8.90349188 24.54513713 -6.69456981 22.86443808 -4.25 21.375 C-3.23873047 20.74658203 -3.23873047 20.74658203 -2.20703125 20.10546875 C-0.4375 19.1875 -0.4375 19.1875 1.5625 19.1875 C1.5625 16.2175 1.5625 13.2475 1.5625 10.1875 C0.5725 10.6825 0.5725 10.6825 -0.4375 11.1875 C-0.90273063 13.08283342 -0.90273063 13.08283342 -1.0625 15.25 C-1.18625 16.549375 -1.31 17.84875 -1.4375 19.1875 C-5.3975 19.1875 -9.3575 19.1875 -13.4375 19.1875 C-13.51900744 17.12566367 -13.5769194 15.06288651 -13.625 13 C-13.65980469 11.85144531 -13.69460938 10.70289063 -13.73046875 9.51953125 C-13.40759421 5.84737143 -12.75435569 4.03541025 -10.4375 1.1875 C-7.17887016 -0.27424862 -3.52813085 0.02039382 0 0 Z M-0.4375 31.1875 C-1.64022819 33.59295638 -1.53821472 35.13746953 -1.5 37.8125 C-1.49097656 38.62976563 -1.48195313 39.44703125 -1.47265625 40.2890625 C-1.46105469 40.91554688 -1.44945312 41.54203125 -1.4375 42.1875 C-0.4475 42.1875 0.5425 42.1875 1.5625 42.1875 C1.5625 38.5575 1.5625 34.9275 1.5625 31.1875 C0.9025 31.1875 0.2425 31.1875 -0.4375 31.1875 Z " fill="#35C0C9" transform="translate(653.4375,815.8125)"/>
<path d="M0 0 C7.26 0 14.52 0 22 0 C22 3.63 22 7.26 22 11 C19.36 11 16.72 11 14 11 C14 14.96 14 18.92 14 23 C16.64 23 19.28 23 22 23 C22 26.63 22 30.26 22 34 C19.36 34 16.72 34 14 34 C14 39.94 14 45.88 14 52 C16.64 52 19.28 52 22 52 C22 55.63 22 59.26 22 63 C14.74 63 7.48 63 0 63 C0 42.21 0 21.42 0 0 Z " fill="#68BE53" transform="translate(804,720)"/>
<path d="M0 0 C3.60598187 2.78850487 5.29259059 5.05887668 6.30078125 9.51171875 C6.38328125 10.39859375 6.46578125 11.28546875 6.55078125 12.19921875 C5.31328125 12.05484375 4.07578125 11.91046875 2.80078125 11.76171875 C-2.93924806 11.12088613 -8.69215193 10.65705655 -14.44921875 10.19921875 C-12.66064453 10.59753906 -12.66064453 10.59753906 -10.8359375 11.00390625 C-9.269457 11.36035092 -7.70305477 11.71713972 -6.13671875 12.07421875 C-5.35103516 12.24824219 -4.56535156 12.42226563 -3.75585938 12.6015625 C-2.99853516 12.77558594 -2.24121094 12.94960938 -1.4609375 13.12890625 C-0.76444092 13.28601074 -0.06794434 13.44311523 0.6496582 13.60498047 C2.55078125 14.19921875 2.55078125 14.19921875 5.55078125 16.19921875 C5.33398981 19.99306896 4.60716095 21.14283905 1.86328125 23.88671875 C-3.62407022 27.98929049 -8.6094526 28.71038708 -15.32421875 27.92578125 C-25.02876339 25.66947462 -33.48463737 19.8253854 -41.2421875 13.80078125 C-43.44462542 12.03339443 -43.44462542 12.03339443 -46.44921875 11.19921875 C-46.44921875 10.53921875 -46.44921875 9.87921875 -46.44921875 9.19921875 C-33.15332466 1.09580401 -15.32105924 -9.3501111 0 0 Z " fill="#8BC676" transform="translate(550.44921875,523.80078125)"/>
<path d="M0 0 C4.62 0 9.24 0 14 0 C14 17.16 14 34.32 14 52 C16.64 52 19.28 52 22 52 C22 55.63 22 59.26 22 63 C14.74 63 7.48 63 0 63 C0 42.21 0 21.42 0 0 Z " fill="#68BE53" transform="translate(763,720)"/>
<path d="M0 0 C4.62 0 9.24 0 14 0 C14 17.16 14 34.32 14 52 C16.64 52 19.28 52 22 52 C22 55.63 22 59.26 22 63 C14.74 63 7.48 63 0 63 C0 42.21 0 21.42 0 0 Z " fill="#68BE53" transform="translate(407,720)"/>
<path d="M0 0 C4.62 0 9.24 0 14 0 C14 20.79 14 41.58 14 63 C9.38 63 4.76 63 0 63 C0 42.21 0 21.42 0 0 Z " fill="#68BE53" transform="translate(730,720)"/>
<path d="M0 0 C6.22488782 5.16601515 6.22488782 5.16601515 6.81640625 9.421875 C6.828125 11.6328125 6.828125 11.6328125 6.515625 15.2578125 C3.215625 13.9378125 -0.084375 12.6178125 -3.484375 11.2578125 C-0.844375 12.9078125 1.795625 14.5578125 4.515625 16.2578125 C4.25872552 19.42623943 3.93291753 20.86744207 1.578125 23.0703125 C-4.06656866 25.25907127 -9.95645501 25.25773562 -15.546875 22.8203125 C-23.25662958 18.42140011 -32.48576534 9.25503182 -36.484375 1.2578125 C-25.86641283 -2.87857624 -10.39197263 -6.69392832 0 0 Z " fill="#1C6F55" transform="translate(541.484375,491.7421875)"/>
<path d="M0 0 C8.82204766 3.99046058 13.86538455 11.95525548 17.7109375 20.5234375 C19.99231279 26.67623753 19.97517245 31.31827577 17.75 37.4375 C16.00938884 39.98625206 14.68196373 41.4913954 12 43 C11.01 43 10.02 43 9 43 C8.67 38.38 8.34 33.76 8 29 C7.67 33.95 7.34 38.9 7 44 C0.83686481 42.9728108 -0.75433819 42.24566181 -5 38 C-8.66269611 30.58740072 -7.73763058 22.45312113 -5.1875 14.8125 C-4.4687513 12.87111117 -3.73994656 10.93340874 -3 9 C-2.40775338 7.25299636 -1.82344649 5.50326464 -1.25 3.75 C-0.8375 2.5125 -0.425 1.275 0 0 Z " fill="#0C7C5E" transform="translate(580,437)"/>
<path d="M0 0 C3.96 0 7.92 0 12 0 C12 20.79 12 41.58 12 63 C8.04 63 4.08 63 0 63 C0 42.21 0 21.42 0 0 Z " fill="#35C0C9" transform="translate(734,805)"/>
<path d="M0 0 C10.78813681 2.45716782 20.71359712 7.62713218 27 17 C29.32608082 21.12350691 29.64610846 25.35551019 29 30 C27.5 33 27.5 33 26 35 C22.26360784 33.75453595 21.81243487 32.36595047 20 29 C20.15597656 29.56589844 20.31195312 30.13179688 20.47265625 30.71484375 C20.76462891 31.81505859 20.76462891 31.81505859 21.0625 32.9375 C21.25972656 33.66839844 21.45695313 34.39929688 21.66015625 35.15234375 C21.77230469 35.76207031 21.88445313 36.37179687 22 37 C21 38 21 38 17.875 38.3125 C13.39989117 37.95160413 10.27423931 37.05595669 7 34 C1.65931194 25.96143859 0.89409591 18.01141426 0.4375 8.625 C0.39431641 7.79355469 0.35113281 6.96210938 0.30664062 6.10546875 C0.20138195 4.07046772 0.10026928 2.03525297 0 0 Z " fill="#4A8E44" transform="translate(541,427)"/>
<path d="M0 0 C-1.91194969 23.09433962 -1.91194969 23.09433962 -8.5 31 C-13.17314227 34.73851381 -15.91649821 35.33797232 -22 35 C-22.66 34.67 -23.32 34.34 -24 34 C-23.01 31.03 -22.02 28.06 -21 25 C-22.32 27.31 -23.64 29.62 -25 32 C-28 31 -28 31 -29.1875 29.375 C-30.79745377 24.66898128 -30.48587675 20.53179179 -28.5625 16 C-23.23427952 6.43510421 -10.75558697 0 0 0 Z M-19 20 C-18 22 -18 22 -18 22 Z " fill="#BFDB7F" transform="translate(667,466)"/>
<path d="M0 0 C7.68469102 4.23612626 13.16590145 9.63098972 17.9375 16.9375 C15.07959234 19.79540766 11.70059368 20.18757933 7.875 21.0625 C7.10365723 21.23918213 6.33231445 21.41586426 5.53759766 21.59790039 C-2.68815732 23.4014592 -9.34861055 24.23947681 -17.0625 19.9375 C-20 17.6875 -20 17.6875 -22.0625 14.9375 C-22.375 11.125 -22.375 11.125 -22.0625 7.9375 C-18.4325 7.9375 -14.8025 7.9375 -11.0625 7.9375 C-14.6925 7.2775 -18.3225 6.6175 -22.0625 5.9375 C-20.0625 0.9375 -20.0625 0.9375 -17.5 -0.875 C-11.10934527 -3.08268072 -6.158199 -2.86625852 0 0 Z " fill="#9ECE5E" transform="translate(641.0625,552.0625)"/>
<path d="M0 0 C0.66 0.33 1.32 0.66 2 1 C1.20636376 26.12269216 1.20636376 26.12269216 -5 34 C-9.41243737 37.76354952 -13.4683007 37.24768803 -19 37 C-18.34 34.03 -17.68 31.06 -17 28 C-18.98 31.465 -18.98 31.465 -21 35 C-23.65531021 32.94213459 -25.70876531 31.28769057 -26.47265625 27.91015625 C-26.68656558 22.46941895 -25.50326255 18.23979753 -22 14 C-15.72453582 7.34110624 -8.67150461 2.89050154 0 0 Z " fill="#266D59" transform="translate(658,434)"/>
<path d="M0 0 C3.96 0 7.92 0 12 0 C12 17.16 12 34.32 12 52 C8.04 52 4.08 52 0 52 C0 34.84 0 17.68 0 0 Z " fill="#35C0C9" transform="translate(766,816)"/>
<path d="M0 0 C3.96 0 7.92 0 12 0 C12 17.16 12 34.32 12 52 C8.04 52 4.08 52 0 52 C0 34.84 0 17.68 0 0 Z " fill="#35C0C9" transform="translate(501,816)"/>
<path d="M0 0 C-0.2565495 2.71037002 -0.52971049 5.41734615 -0.8125 8.125 C-0.88275391 8.88554687 -0.95300781 9.64609375 -1.02539062 10.4296875 C-1.6656283 16.37109317 -3.03798692 20.86981437 -7.1875 25.375 C-11.05294981 27.608371 -13.58359292 27.29941743 -18 27 C-18 26.01 -18 25.02 -18 24 C-18.99 24.33 -19.98 24.66 -21 25 C-23.23872887 21.14973478 -23.21759478 18.56656605 -22.59375 14.2421875 C-20.97834096 8.14189283 -16.07856152 5.04389863 -10.921875 2.0390625 C-6.76796185 -0.20675234 -4.58186579 -1.32835605 0 0 Z M-16 18 C-15 20 -15 20 -15 20 Z M-17 20 C-16 22 -16 22 -16 22 Z " fill="#68BE53" transform="translate(625,433)"/>
<path d="M0 0 C-9.9607217 16.29936279 -9.9607217 16.29936279 -18.625 18.6875 C-22.83096657 19.33625394 -25.42914847 18.38056769 -29 16 C-29 14.66666667 -29 13.33333333 -29 12 C-29.66 12 -30.32 12 -31 12 C-31.48928347 7.89001881 -31.1788048 6.27346616 -28.875 2.75 C-21.47480442 -4.32844795 -9.1027185 -3.38705805 0 0 Z " fill="#1C6F55" transform="translate(697,481)"/>
<path d="M0 0 C2.15072217 1.2195666 4.02410788 2.50473029 6 4 C4.65107782 8.04676653 2.79276841 8.55803219 -0.875 10.625 C-1.94492187 11.23601563 -3.01484375 11.84703125 -4.1171875 12.4765625 C-9.39480219 15.26554587 -14.12005379 15.68458704 -20 15 C-23.12891 13.21205143 -24.54063717 12.14840707 -25.875 8.8125 C-25.91625 8.214375 -25.9575 7.61625 -26 7 C-25.67 6.67 -25.34 6.34 -25 6 C-25.37125 5.13375 -25.37125 5.13375 -25.75 4.25 C-25.8325 3.5075 -25.915 2.765 -26 2 C-18.34472156 -7.1438048 -9.68330122 -4.30368943 0 0 Z M-19 4 C-19 4.33 -19 4.66 -19 5 C-17.02 5 -15.04 5 -13 5 C-13 4.67 -13 4.34 -13 4 C-14.98 4 -16.96 4 -19 4 Z " fill="#68BE53" transform="translate(680,543)"/>
<path d="M0 0 C8.98531516 -0.40433918 15.5238513 -0.26385843 23 5.1875 C25.75906154 9.06743029 25.39640086 11.32246982 25 16 C24.34 16 23.68 16 23 16 C22.67 16.99 22.34 17.98 22 19 C19.13391871 20.43304064 17.18699217 20.30644155 14 20 C7.925547 17.14872614 5.87921764 12.71759531 3 7 C2.401875 6.030625 1.80375 5.06125 1.1875 4.0625 C0 2 0 2 0 0 Z " fill="#BFDB7F" transform="translate(514,465)"/>
<path d="M0 0 C7.12100578 2.98021972 12.91070845 6.25080452 17 13 C18.0462467 15.98695301 18.10876431 17.73707064 18 21 C16.70737189 23.58525622 15.49989586 24.63800644 13.1875 26.3125 C10.04368721 27.30055545 8.13563754 26.97988673 5 26 C1.4560192 22.26445267 -0.13158747 19.73812121 -0.09765625 14.6484375 C-0.09443359 13.79765625 -0.09121094 12.946875 -0.08789062 12.0703125 C-0.07951172 11.18085938 -0.07113281 10.29140625 -0.0625 9.375 C-0.05798828 8.4778125 -0.05347656 7.580625 -0.04882812 6.65625 C-0.03702591 4.43743352 -0.02056155 2.21874982 0 0 Z M11 20 C12 22 12 22 12 22 Z " fill="#1C8C50" transform="translate(585,416)"/>
<path d="M0 0 C15.81140351 -0.59210526 15.81140351 -0.59210526 23.4375 4.6875 C25.78766061 8.1657377 25.27603915 10.85941278 25 15 C24.34 15 23.68 15 23 15 C22.34 16.32 21.68 17.64 21 19 C16.2869031 19.49611546 13.20022548 19.67408544 9.375 16.6875 C5.10495627 12.59414774 2.39082822 7.35965886 0 2 C0 1.34 0 0.68 0 0 Z " fill="#1C6F55" transform="translate(553,516)"/>
<path d="M0 0 C2.0625 1.5 2.0625 1.5 3 4 C3.45473048 7.18311337 3.69554906 8.98395537 3 12 C-0.55339257 16.67017309 -3.84800825 17.37304274 -9.5625 18.3125 C-13.40371639 18.8056597 -17.12800336 19.07931464 -21 19 C-20.48750403 12.16672043 -17.07088019 6.74030837 -12.25 2 C-8.05947299 -0.57878585 -4.80571484 -0.98941188 0 0 Z " fill="#68BE53" transform="translate(566,547)"/>
<path d="M0 0 C2.31 0 4.62 0 7 0 C7.33 0.66 7.66 1.32 8 2 C11.41656024 2.16677282 11.41656024 2.16677282 15 2 C15.66 1.34 16.32 0.68 17 0 C20.625 -0.125 20.625 -0.125 24 0 C23.76065097 3.51045242 23.34119266 5.55291996 21.1875 8.375 C16.31169707 10.86070346 11.37546622 10.63588734 6 10 C3.39431942 8.97015691 2.30758627 8.46137941 0.75 6.125 C0 4 0 4 0 0 Z " fill="#68BE53" transform="translate(601,708)"/>
<path d="M0 0 C3.63 0 7.26 0 11 0 C11 3.3 11 6.6 11 10 C7.37 10 3.74 10 0 10 C0 6.7 0 3.4 0 0 Z " fill="#68BE53" transform="translate(731,708)"/>
</svg>
